<?xml version="1.0" encoding="utf-8"?>
<!-- Generator: Adobe Illustrator 15.0.0, SVG Export Plug-In . SVG Version: 6.00 Build 0)  -->
<!DOCTYPE svg PUBLIC "-//W3C//DTD SVG 1.1//EN" "http://www.w3.org/Graphics/SVG/1.1/DTD/svg11.dtd">
<svg version="1.1"
	 id="Ebene_1" xmlns:inkscape="http://www.inkscape.org/namespaces/inkscape" xmlns:sodipodi="http://sodipodi.sourceforge.net/DTD/sodipodi-0.dtd" xmlns:svg="http://www.w3.org/2000/svg" xmlns:rdf="http://www.w3.org/1999/02/22-rdf-syntax-ns#" xmlns:cc="http://creativecommons.org/ns#" xmlns:dc="http://purl.org/dc/elements/1.1/"
	 xmlns="http://www.w3.org/2000/svg" xmlns:xlink="http://www.w3.org/1999/xlink" x="0px" y="0px" width="612px" height="792px"
	 viewBox="0 0 612 792" enable-background="new 0 0 612 792" xml:space="preserve">
<g transform="translate(0,-952.36218)">
	<path fill="#FFFFFF" d="M153,1134.161v385.56c0,23.734-19.106,42.84-42.84,42.84H489.6c23.733,0,42.841-19.105,42.841-42.84
		v-385.56H153z M214.2,1195.362H336.6v85.68H214.2V1195.362z M397.8,1195.362h73.44c6.76,0,12.24,5.48,12.24,12.24
		s-5.48,12.24-12.24,12.24H397.8c-6.76,0-12.24-5.479-12.24-12.24S391.04,1195.362,397.8,1195.362z M79.56,1256.562v263.16
		c0,17.164,13.436,30.601,30.6,30.601s30.6-13.437,30.6-30.601v-263.16H79.56z M397.8,1256.562h73.44
		c6.76,0,12.24,5.479,12.24,12.24s-5.48,12.24-12.24,12.24H397.8c-6.76,0-12.24-5.48-12.24-12.24S391.04,1256.562,397.8,1256.562z
		 M214.2,1330.002h257.04c6.76,0,12.24,5.479,12.24,12.24s-5.48,12.24-12.24,12.24H214.2c-6.76,0-12.24-5.479-12.24-12.24
		S207.44,1330.002,214.2,1330.002z M214.2,1397.321h257.04c6.76,0,12.24,5.48,12.24,12.24c0,6.761-5.48,12.24-12.24,12.24H214.2
		c-6.76,0-12.24-5.479-12.24-12.24C201.96,1402.802,207.44,1397.321,214.2,1397.321z M214.2,1464.642h257.04
		c6.76,0,12.24,5.479,12.24,12.24c0,6.76-5.48,12.24-12.24,12.24H214.2c-6.76,0-12.24-5.479-12.24-12.24
		S207.44,1464.643,214.2,1464.642L214.2,1464.642z"/>
</g>
</svg>
